HIERARCHY
ROOT joint_0
{
	OFFSET 0.000000 0.000000 0.000000
	CHANNELS 6 Xposition Yposition Zposition Zrotation Yrotation Xrotation 
	JOINT joint_1
	{
		OFFSET 6.590088 -1.122192 114.019043
		CHANNELS 3 Zrotation Yrotation Xrotation
		JOINT joint_2
		{
			OFFSET -5.956055 -0.820435 104.151001
			CHANNELS 3 Zrotation Yrotation Xrotation
			JOINT joint_3
			{
				OFFSET -7.343506 -1.103027 103.942993
				CHANNELS 3 Zrotation Yrotation Xrotation
				JOINT joint_4
				{
					OFFSET 3.109131 -2.857056 147.715942
					CHANNELS 3 Zrotation Yrotation Xrotation
					JOINT joint_5
					{
						OFFSET 28.592285 -2.852295 87.703979
						CHANNELS 3 Zrotation Yrotation Xrotation
						End Site
						{
							OFFSET 0.000000 0.000000 0.000000
						}
					}
				}
				JOINT joint_6
				{
					OFFSET -0.332520 -33.687378 82.401978
					CHANNELS 3 Zrotation Yrotation Xrotation
					JOINT joint_7
					{
						OFFSET -7.397461 -168.719177 -22.750977
						CHANNELS 3 Zrotation Yrotation Xrotation
						JOINT joint_8
						{
							OFFSET 17.065918 -24.903137 -272.721069
							CHANNELS 3 Zrotation Yrotation Xrotation
							JOINT joint_9
							{
								OFFSET 33.311279 -37.031616 -278.192993
								CHANNELS 3 Zrotation Yrotation Xrotation
								End Site
								{
									OFFSET 0.000000 0.000000 0.000000
								}
							}
						}
					}
				}
				JOINT joint_10
				{
					OFFSET 3.914307 30.461670 83.552979
					CHANNELS 3 Zrotation Yrotation Xrotation
					JOINT joint_11
					{
						OFFSET 15.543701 166.845459 -30.963013
						CHANNELS 3 Zrotation Yrotation Xrotation
						JOINT joint_12
						{
							OFFSET 35.734863 35.017700 -269.786011
							CHANNELS 3 Zrotation Yrotation Xrotation
							JOINT joint_13
							{
								OFFSET 70.506592 13.977783 -273.320007
								CHANNELS 3 Zrotation Yrotation Xrotation
								End Site
								{
									OFFSET 0.000000 0.000000 0.000000
								}
							}
						}
					}
				}
			}
		}
	}
	JOINT joint_14
	{
		OFFSET -0.314697 -95.093994 -116.004028
		CHANNELS 3 Zrotation Yrotation Xrotation
		JOINT joint_15
		{
			OFFSET -22.490723 2.017883 -455.510986
			CHANNELS 3 Zrotation Yrotation Xrotation
			JOINT joint_16
			{
				OFFSET -46.427490 7.144104 -496.360985
				CHANNELS 3 Zrotation Yrotation Xrotation
				JOINT joint_17
				{
					OFFSET 209.055420 -37.122803 -85.191002
					CHANNELS 3 Zrotation Yrotation Xrotation
					End Site
					{
						OFFSET 0.000000 0.000000 0.000000
					}
				}
			}
		}
	}
	JOINT joint_18
	{
		OFFSET 5.652832 94.642578 -116.244019
		CHANNELS 3 Zrotation Yrotation Xrotation
		JOINT joint_19
		{
			OFFSET -12.379883 -7.332642 -455.843994
			CHANNELS 3 Zrotation Yrotation Xrotation
			JOINT joint_20
			{
				OFFSET -45.227051 -8.172241 -496.457985
				CHANNELS 3 Zrotation Yrotation Xrotation
				JOINT joint_21
				{
					OFFSET 210.522949 -11.530396 -88.809004
					CHANNELS 3 Zrotation Yrotation Xrotation
					End Site
					{
						OFFSET 0.000000 0.000000 0.000000
					}
				}
			}
		}
	}
}
MOTION
Frames: 18
Frame Time: 0.016667
-2740.287598 943.762329 1184.652954 -5.178994 -2.261207 -0.483144 -0.129774 -0.057985 -0.540462 -0.093198 -0.008355 0.113031 -0.105811 0.029948 -0.068676 0.155649 2.057967 -0.263543 0.000000 0.000000 0.000000 0.594303 2.531853 2.673626 -0.052529 2.564578 3.977839 -0.384390 2.313803 -0.620470 0.000000 0.000000 0.000000 0.679713 1.529115 0.869310 -0.398261 1.962257 -5.840752 1.249681 5.146970 3.567534 0.000000 0.000000 0.000000 -1.537803 -2.483309 0.907726 -1.377930 1.966527 -2.149802 -1.583426 3.165160 -0.080770 0.000000 0.000000 0.000000 1.466156 -0.501145 -2.079716 1.334183 0.695078 1.827349 1.440726 0.736467 0.645920 0.000000 0.000000 0.000000 
-2740.113037 943.838257 1184.626953 -5.135286 -2.277675 -0.487216 -0.137383 -0.059901 -0.557828 -0.099669 -0.008570 0.115958 -0.112608 0.029516 -0.070234 0.155902 2.040648 -0.266464 0.000000 0.000000 0.000000 0.612089 2.546824 2.678875 -0.053166 2.582349 3.975404 -0.381122 2.303214 -0.604635 0.000000 0.000000 0.000000 0.668168 1.525235 0.884027 -0.397314 1.961504 -5.835263 1.253753 5.161671 3.580359 0.000000 0.000000 0.000000 -1.550082 -2.468746 0.910895 -1.389308 1.997184 -2.161032 -1.596237 3.155204 -0.087728 0.000000 0.000000 0.000000 1.455676 -0.486519 -2.082074 1.323646 0.715589 1.827170 1.431168 0.722623 0.641146 0.000000 0.000000 0.000000 
-2739.931885 943.876648 1184.598022 -5.078585 -2.290108 -0.491046 -0.145719 -0.061453 -0.577444 -0.106806 -0.008289 0.117797 -0.119891 0.029645 -0.070372 0.154837 2.017931 -0.265955 0.000000 0.000000 0.000000 0.624929 2.558519 2.683769 -0.053534 2.595589 3.985255 -0.379268 2.282792 -0.611806 0.000000 0.000000 0.000000 0.652866 1.519977 0.899137 -0.396712 1.959866 -5.827956 1.257237 5.177185 3.591222 0.000000 0.000000 0.000000 -1.566649 -2.453864 0.917874 -1.404620 2.021474 -2.176097 -1.613097 3.149777 -0.095526 0.000000 0.000000 0.000000 1.441431 -0.481644 -2.084340 1.308980 0.745839 1.828785 1.418017 0.704507 0.634629 0.000000 0.000000 0.000000 
-2739.733643 943.886780 1184.571045 -5.023484 -2.301662 -0.495302 -0.151154 -0.064204 -0.595734 -0.111116 -0.008484 0.119426 -0.124377 0.030775 -0.071366 0.153295 1.994541 -0.264055 0.000000 0.000000 0.000000 0.633487 2.561294 2.690365 -0.054367 2.599744 3.987967 -0.379487 2.284995 -0.611645 0.000000 0.000000 0.000000 0.637877 1.514809 0.910408 -0.396089 1.957472 -5.816058 1.260231 5.193912 3.600476 0.000000 0.000000 0.000000 -1.583110 -2.439055 0.926785 -1.419723 2.046836 -2.191172 -1.629774 3.140046 -0.104016 0.000000 0.000000 0.000000 1.426588 -0.472517 -2.083736 1.294045 0.768454 1.829110 1.404340 0.688491 0.628008 0.000000 0.000000 0.000000 
-2739.512939 943.861267 1184.546997 -4.974253 -2.316598 -0.500476 -0.152371 -0.064737 -0.614612 -0.110933 -0.009058 0.125604 -0.124903 0.031670 -0.075268 0.152549 1.972091 -0.264488 0.000000 0.000000 0.000000 0.637640 2.550094 2.699411 -0.056069 2.590278 3.972637 -0.382571 2.331446 -0.587050 0.000000 0.000000 0.000000 0.624362 1.510183 0.915362 -0.395288 1.954082 -5.796663 1.262394 5.211743 3.606948 0.000000 0.000000 0.000000 -1.598663 -2.420979 0.939013 -1.433680 2.076377 -2.207285 -1.645536 3.121240 -0.113748 0.000000 0.000000 0.000000 1.411741 -0.448765 -2.077624 1.279921 0.773693 1.825838 1.390747 0.679045 0.621784 0.000000 0.000000 0.000000 
-2739.274170 943.807373 1184.522949 -4.926570 -2.331326 -0.505996 -0.150712 -0.066065 -0.632366 -0.107909 -0.009160 0.131979 -0.122678 0.032430 -0.080177 0.151774 1.950187 -0.264761 0.000000 0.000000 0.000000 0.637937 2.530532 2.709232 -0.058110 2.572233 3.951290 -0.387564 2.399341 -0.555178 0.000000 0.000000 0.000000 0.611238 1.505736 0.916922 -0.394572 1.950060 -5.772966 1.263993 5.231324 3.611384 0.000000 0.000000 0.000000 -1.614217 -2.402259 0.953201 -1.447522 2.107144 -2.223670 -1.661235 3.097285 -0.124370 0.000000 0.000000 0.000000 1.396400 -0.419951 -2.068578 1.265653 0.771324 1.820942 1.376727 0.671364 0.615480 0.000000 0.000000 0.000000 
-2739.025146 943.752808 1184.500977 -4.881982 -2.340203 -0.509958 -0.148956 -0.073874 -0.649347 -0.104857 -0.009120 0.136992 -0.120241 0.032796 -0.083768 0.150554 1.932687 -0.263171 0.000000 0.000000 0.000000 0.644340 2.512407 2.719004 -0.060146 2.556137 3.937181 -0.392854 2.455678 -0.538664 0.000000 0.000000 0.000000 0.604140 1.503767 0.919190 -0.393983 1.947838 -5.753449 1.265594 5.248768 3.616524 0.000000 0.000000 0.000000 -1.628528 -2.388281 0.962369 -1.460699 2.135455 -2.233712 -1.675577 3.073394 -0.134433 0.000000 0.000000 0.000000 1.382159 -0.397780 -2.062986 1.252131 0.770720 1.819348 1.363756 0.662472 0.609550 0.000000 0.000000 0.000000 
-2738.765137 943.716492 1184.479004 -4.841252 -2.338763 -0.510998 -0.148520 -0.095778 -0.665575 -0.103156 -0.005823 0.139804 -0.118984 0.029200 -0.086154 0.148770 1.924498 -0.258815 0.000000 0.000000 0.000000 0.661128 2.500494 2.727532 -0.062130 2.546910 3.939034 -0.398192 2.485355 -0.551878 0.000000 0.000000 0.000000 0.608359 1.506309 0.923905 -0.393369 1.949128 -5.743005 1.268177 5.263286 3.626254 0.000000 0.000000 0.000000 -1.641249 -2.384016 0.960838 -1.473419 2.161538 -2.231840 -1.688184 3.047669 -0.144121 0.000000 0.000000 0.000000 1.370111 -0.389352 -2.064046 1.240125 0.776426 1.821889 1.352788 0.648840 0.604205 0.000000 0.000000 0.000000 
-2738.494141 943.679382 1184.458008 -4.804031 -2.331357 -0.510508 -0.147823 -0.124826 -0.680957 -0.101241 -0.000885 0.141442 -0.117364 0.023580 -0.087071 0.146906 1.921625 -0.253618 0.000000 0.000000 0.000000 0.683687 2.490599 2.735093 -0.064086 2.540075 3.949119 -0.403754 2.502543 -0.580708 0.000000 0.000000 0.000000 0.618489 1.511658 0.929224 -0.392836 1.952592 -5.737034 1.270818 5.275511 3.636947 0.000000 0.000000 0.000000 -1.652702 -2.384749 0.954501 -1.485425 2.185411 -2.223858 -1.699418 3.021784 -0.153283 0.000000 0.000000 0.000000 1.359209 -0.387813 -2.068495 1.228911 0.784225 1.827702 1.342926 0.633557 0.599233 0.000000 0.000000 0.000000 
-2738.217285 943.610779 1184.437988 -4.767705 -2.325029 -0.510178 -0.145214 -0.146640 -0.695604 -0.097464 0.001751 0.144244 -0.113981 0.020633 -0.088958 0.144791 1.914854 -0.248061 0.000000 0.000000 0.000000 0.702941 2.480239 2.742421 -0.065489 2.532214 3.960795 -0.408603 2.517316 -0.606066 0.000000 0.000000 0.000000 0.624717 1.515416 0.938849 -0.393547 1.955453 -5.732034 1.271513 5.288619 3.640067 0.000000 0.000000 0.000000 -1.664047 -2.381339 0.952916 -1.496946 2.203144 -2.219437 -1.710417 3.002562 -0.161171 0.000000 0.000000 0.000000 1.347765 -0.384313 -2.072791 1.217104 0.790605 1.837299 1.332704 0.622609 0.594349 0.000000 0.000000 0.000000 
-2737.942383 943.499268 1184.418945 -4.732518 -2.323049 -0.511831 -0.139971 -0.153263 -0.706240 -0.091465 0.003126 0.145905 -0.108197 0.019188 -0.089875 0.143557 1.901320 -0.245895 0.000000 0.000000 0.000000 0.718143 2.468876 2.748117 -0.066120 2.522588 3.974653 -0.412527 2.529003 -0.626822 0.000000 0.000000 0.000000 0.624504 1.516565 0.953212 -0.396097 1.956859 -5.725478 1.268326 5.301268 3.628504 0.000000 0.000000 0.000000 -1.675619 -2.370104 0.960657 -1.507938 2.213387 -2.221877 -1.721461 2.993594 -0.167261 0.000000 0.000000 0.000000 1.335548 -0.376387 -2.074567 1.204550 0.796502 1.851564 1.322026 0.617732 0.589606 0.000000 0.000000 0.000000 
-2737.662598 943.356262 1184.401978 -4.698188 -2.322263 -0.513874 -0.132799 -0.151776 -0.715165 -0.083703 0.001225 0.147893 -0.100677 0.020296 -0.091723 0.142391 1.885184 -0.244200 0.000000 0.000000 0.000000 0.730347 2.457259 2.754067 -0.066249 2.512219 3.989998 -0.415761 2.537958 -0.644631 0.000000 0.000000 0.000000 0.619865 1.516400 0.971454 -0.399767 1.957945 -5.719117 1.263042 5.314215 3.608879 0.000000 0.000000 0.000000 -1.687068 -2.354695 0.973560 -1.518396 2.217463 -2.228178 -1.732253 2.991726 -0.171994 0.000000 0.000000 0.000000 1.322763 -0.366629 -2.075997 1.191374 0.801293 1.869739 1.310976 0.617089 0.584939 0.000000 0.000000 0.000000 
-2737.359863 943.187622 1184.385986 -4.662409 -2.319816 -0.514299 -0.126213 -0.155912 -0.725798 -0.076336 0.001874 0.150436 -0.093653 0.019181 -0.093719 0.141082 1.873347 -0.241592 0.000000 0.000000 0.000000 0.738754 2.446927 2.760816 -0.066128 2.502857 3.999875 -0.417743 2.551201 -0.647079 0.000000 0.000000 0.000000 0.614020 1.518707 0.989451 -0.402751 1.961980 -5.714358 1.258924 5.327821 3.593413 0.000000 0.000000 0.000000 -1.698328 -2.337586 0.989580 -1.528306 2.216396 -2.239126 -1.742875 2.995461 -0.175666 0.000000 0.000000 0.000000 1.308116 -0.354583 -2.078441 1.176394 0.800524 1.889551 1.298194 0.619014 0.579685 0.000000 0.000000 0.000000 
-2737.021973 942.987427 1184.373047 -4.622461 -2.315488 -0.511318 -0.120641 -0.167856 -0.741076 -0.069636 0.003644 0.153290 -0.087342 0.016107 -0.095590 0.139265 1.869130 -0.236621 0.000000 0.000000 0.000000 0.738412 2.437330 2.770453 -0.065768 2.493640 3.997837 -0.418008 2.576212 -0.622038 0.000000 0.000000 0.000000 0.603768 1.525022 1.006085 -0.403748 1.971260 -5.711642 1.257686 5.339853 3.589106 0.000000 0.000000 0.000000 -1.709702 -2.319121 1.009397 -1.537754 2.211628 -2.258101 -1.753788 3.004472 -0.178522 0.000000 0.000000 0.000000 1.290084 -0.337313 -2.083731 1.158156 0.789602 1.911140 1.282212 0.624121 0.573263 0.000000 0.000000 0.000000 
-2736.660889 942.762573 1184.363037 -4.581180 -2.309259 -0.506801 -0.115016 -0.185518 -0.756893 -0.062836 0.006263 0.155503 -0.080932 0.013189 -0.098045 0.136813 1.867861 -0.229390 0.000000 0.000000 0.000000 0.732662 2.428763 2.781951 -0.065135 2.485031 3.989809 -0.416994 2.605579 -0.581416 0.000000 0.000000 0.000000 0.589796 1.533197 1.022451 -0.403981 1.983307 -5.710007 1.257720 5.352786 3.589293 0.000000 0.000000 0.000000 -1.720931 -2.299373 1.032324 -1.546705 2.201992 -2.281643 -1.764585 3.019325 -0.180297 0.000000 0.000000 0.000000 1.270422 -0.318039 -2.090003 1.138347 0.773119 1.934217 1.264695 0.632454 0.566373 0.000000 0.000000 0.000000 
-2736.297852 942.535583 1184.349976 -4.545406 -2.300505 -0.502641 -0.108121 -0.207830 -0.770476 -0.054831 0.009398 0.158025 -0.073318 0.009095 -0.099935 0.135356 1.870071 -0.224825 0.000000 0.000000 0.000000 0.729493 2.424722 2.790269 -0.064521 2.480930 3.987248 -0.415737 2.625813 -0.548735 0.000000 0.000000 0.000000 0.577383 1.541830 1.037449 -0.404853 1.995472 -5.710331 1.257912 5.370732 3.588856 0.000000 0.000000 0.000000 -1.729377 -2.278016 1.052979 -1.553246 2.184065 -2.300843 -1.772403 3.036021 -0.180539 0.000000 0.000000 0.000000 1.252759 -0.303167 -2.095101 1.120443 0.760092 1.956945 1.249026 0.640707 0.560256 0.000000 0.000000 0.000000 
-2735.944092 942.319214 1184.337036 -4.519909 -2.287030 -0.500034 -0.097895 -0.236145 -0.779676 -0.043577 0.013363 0.162515 -0.062765 0.003662 -0.103889 0.134621 1.875027 -0.222187 0.000000 0.000000 0.000000 0.732082 2.427204 2.795204 -0.064012 2.483515 3.996300 -0.414624 2.629344 -0.535485 0.000000 0.000000 0.000000 0.565181 1.549264 1.051334 -0.407237 2.006138 -5.711743 1.258022 5.400484 3.585216 0.000000 0.000000 0.000000 -1.733040 -2.255344 1.068039 -1.555882 2.152094 -2.309395 -1.775023 3.058245 -0.177698 0.000000 0.000000 0.000000 1.239477 -0.298740 -2.096967 1.106763 0.756158 1.976738 1.237301 0.648751 0.555786 0.000000 0.000000 0.000000 
-2735.588623 942.100769 1184.322021 -4.499564 -2.271102 -0.497994 -0.085760 -0.268613 -0.785721 -0.030608 0.016803 0.166182 -0.050386 -0.001851 -0.107168 0.134262 1.882752 -0.220411 0.000000 0.000000 0.000000 0.734691 2.434079 2.797516 -0.063495 2.490177 4.010353 -0.413211 2.623965 -0.529404 0.000000 0.000000 0.000000 0.551280 1.556890 1.063878 -0.410092 2.017259 -5.714749 1.258325 5.434667 3.581184 0.000000 0.000000 0.000000 -1.734075 -2.230996 1.080937 -1.556258 2.111830 -2.313568 -1.774816 3.082600 -0.173334 0.000000 0.000000 0.000000 1.227999 -0.298853 -2.097303 1.094806 0.756115 1.995904 1.227229 0.656858 0.552015 0.000000 0.000000 0.000000 
